 <svg version="1.0" xmlns="http://www.w3.org/2000/svg" width="700.000000pt" height="700.000000pt" viewBox="0 0 700.000000 700.000000" preserveAspectRatio="xMidYMid meet">
<metadata>

</metadata>
<g transform="translate(0.000000,700.000000) scale(0.100000,-0.100000)" fill="#000000" stroke="none">
<path d="M1711 6233 c-6 -16 -29 -62 -52 -103 -23 -41 -69 -127 -102 -190 -33
-63 -67 -120 -75 -126 -9 -6 -13 -18 -9 -28 6 -14 35 -16 284 -16 153 0 566 4
918 9 856 13 2102 16 2195 7 41 -4 116 -11 165 -16 118 -11 186 -29 340 -92
162 -66 343 -235 424 -395 39 -78 81 -206 81 -246 0 -17 5 -56 12 -88 15 -73
-5 -230 -42 -339 -46 -131 -121 -249 -217 -341 -59 -57 -147 -122 -186 -140
-12 -5 -29 -13 -37 -18 -59 -33 -158 -70 -222 -81 -26 -5 -56 -14 -68 -20 -30
-16 -321 -28 -527 -22 l-172 5 -11 -24 c-6 -13 -21 -41 -33 -61 -12 -20 -51
-85 -86 -145 -35 -59 -84 -139 -109 -178 -25 -38 -45 -72 -44 -74 4 -8 587 -1
792 10 113 6 225 16 250 24 25 7 68 17 95 20 28 4 62 14 77 21 15 8 35 14 45
14 10 1 36 9 58 20 22 11 45 20 50 20 10 0 153 70 205 100 191 110 381 308
490 513 69 128 91 189 129 342 25 101 41 290 31 360 -6 39 -14 106 -19 151 -4
44 -11 86 -16 93 -4 7 -13 36 -20 64 -86 340 -401 699 -740 843 -102 43 -124
52 -185 72 -36 12 -78 22 -93 22 -16 0 -38 5 -50 12 -12 6 -98 19 -192 29
-156 17 -304 18 -1747 19 l-1576 0 -11 -27z"></path>
<path d="M4705 5418 c-49 -4 -842 -11 -1762 -14 l-1672 -6 -53 -96 c-29 -53
-61 -110 -70 -127 -9 -16 -23 -43 -32 -60 -31 -61 -73 -135 -85 -149 -7 -8
-10 -20 -6 -26 4 -7 467 -10 1481 -10 1239 0 1475 -2 1480 -14 3 -7 -9 -38
-25 -67 -17 -30 -37 -67 -46 -84 -8 -16 -31 -57 -51 -90 -19 -33 -42 -73 -50
-90 -8 -16 -24 -46 -36 -65 -11 -19 -32 -55 -46 -80 -13 -25 -32 -58 -42 -75
-19 -33 -57 -101 -103 -185 -16 -30 -33 -59 -37 -65 -4 -5 -26 -46 -50 -90
-24 -44 -47 -85 -51 -91 -5 -6 -20 -31 -32 -55 -68 -126 -101 -186 -113 -200
-8 -8 -14 -18 -14 -22 0 -6 -170 -316 -190 -347 -6 -8 -13 -22 -17 -30 -6 -13
-99 -180 -123 -220 -18 -32 -145 -257 -162 -290 -10 -19 -35 -62 -54 -95 -19
-33 -42 -73 -50 -90 -8 -16 -19 -37 -24 -45 -18 -29 -118 -206 -147 -260 -26
-49 -188 -337 -250 -445 -12 -22 -28 -51 -35 -65 -7 -14 -38 -69 -69 -122 -32
-53 -55 -99 -51 -102 3 -3 765 -6 1693 -6 l1687 0 29 38 c16 20 51 73 77 117
92 154 144 236 175 275 43 54 41 64 -13 57 -24 -4 -671 -9 -1438 -13 -1028 -5
-1397 -4 -1402 4 -6 10 30 85 91 190 34 60 47 83 93 167 23 44 51 92 61 107
11 14 19 28 19 31 0 3 22 43 48 89 26 46 51 90 56 98 4 8 18 33 31 55 13 22
37 66 54 97 17 32 41 75 54 95 12 21 28 49 35 63 7 14 23 43 37 65 13 22 31
54 39 70 8 17 31 57 50 90 19 33 42 74 51 90 8 17 21 39 28 50 6 11 30 52 51
90 22 39 48 86 59 105 11 19 31 55 45 80 13 25 39 70 56 100 18 30 35 62 40
70 4 8 18 33 31 55 14 22 29 49 34 61 5 11 29 54 53 95 24 40 49 85 56 99 6
14 16 32 21 40 16 25 106 183 119 210 7 14 23 43 37 65 13 22 29 50 34 62 6
12 21 39 34 60 13 21 37 63 54 93 52 94 85 153 117 210 18 30 35 62 40 70 4 8
18 33 31 55 14 22 31 51 38 65 7 14 37 69 67 123 30 54 61 110 69 125 8 15 27
44 43 64 28 36 30 60 5 56 -7 -1 -52 -5 -102 -10z"></path>
<path d="M2776 4538 c-30 -48 -67 -114 -82 -147 -8 -18 -25 -50 -38 -70 -12
-20 -36 -61 -53 -91 -16 -30 -40 -71 -51 -90 -12 -19 -26 -44 -31 -56 -5 -11
-30 -56 -56 -100 -26 -43 -51 -88 -56 -99 -5 -11 -13 -27 -18 -35 -6 -8 -35
-60 -66 -115 -31 -55 -60 -107 -65 -115 -6 -8 -17 -28 -25 -45 -8 -16 -31 -57
-51 -90 -19 -33 -42 -73 -50 -90 -8 -16 -23 -43 -33 -60 -18 -30 -24 -41 -97
-170 -21 -38 -45 -79 -51 -90 -7 -11 -19 -33 -28 -50 -8 -16 -19 -37 -25 -45
-5 -8 -34 -60 -65 -115 -31 -55 -60 -107 -65 -115 -5 -8 -23 -41 -39 -72 -17
-32 -41 -75 -54 -95 -12 -21 -28 -49 -35 -63 -7 -14 -23 -43 -37 -65 -13 -22
-31 -53 -39 -70 -8 -16 -31 -57 -50 -90 -20 -33 -42 -73 -51 -90 -8 -16 -19
-37 -24 -45 -6 -8 -33 -55 -61 -105 -28 -49 -55 -97 -60 -105 -5 -8 -23 -42
-41 -75 -17 -33 -34 -64 -39 -70 -4 -5 -26 -46 -50 -90 -24 -44 -47 -85 -52
-92 -5 -7 -17 -27 -27 -45 -9 -18 -39 -73 -67 -121 -27 -49 -56 -100 -64 -115
-71 -128 -128 -230 -145 -258 -11 -18 -32 -55 -47 -81 -14 -27 -38 -68 -52
-93 -14 -25 -32 -59 -40 -77 -8 -17 -24 -41 -36 -53 -29 -29 -19 -54 17 -46
29 6 455 26 486 23 13 -1 28 14 48 52 16 30 33 59 38 65 4 6 25 43 46 81 21
39 69 123 106 188 38 65 69 120 69 122 0 2 32 58 70 125 39 67 70 123 70 125
0 4 176 314 190 335 6 8 14 24 19 36 5 11 30 56 56 100 26 43 51 88 56 99 5
11 13 27 19 35 12 18 142 247 176 310 14 25 35 62 47 83 12 20 42 74 66 120
24 45 49 89 55 97 7 8 18 26 24 40 7 14 28 52 47 85 20 33 42 74 51 90 8 17
23 44 34 60 11 17 25 41 32 55 7 14 33 61 58 105 26 44 49 87 54 95 4 8 18 33
31 55 14 22 30 51 37 65 7 14 32 59 56 99 24 41 48 84 53 95 5 12 19 38 32 58
12 21 34 59 49 85 14 27 38 68 52 93 14 25 33 59 41 75 8 17 20 37 25 45 5 8
41 71 80 140 39 69 75 132 80 140 6 8 13 22 17 30 3 8 30 56 60 107 29 50 53
94 53 98 0 4 14 25 31 46 54 69 53 69 -240 69 -259 0 -261 0 -275 -22z"></path>
<path d="M2839 1226 c-2 -2 -208 -6 -457 -7 l-452 -4 -38 -60 c-20 -33 -41
-67 -47 -77 -13 -21 -72 -117 -88 -142 -7 -11 -27 -45 -46 -75 -18 -31 -43
-66 -54 -78 -11 -13 -18 -25 -15 -28 10 -10 3461 -5 3473 5 6 5 56 99 110 207
54 109 105 206 113 215 8 10 12 24 9 33 -6 13 -141 15 -1255 15 -687 0 -1251
-2 -1253 -4z"></path>
</g>
</svg>